<?xml version="1.0" encoding="UTF-8"?>
<svg width="448px" height="512px" viewBox="0 0 448 512" xmlns="http://www.w3.org/2000/svg" xmlns:xlink="http://www.w3.org/1999/xlink" version="1.1">
 <!-- Generated by Pixelmator Pro 1.3.4 -->
 <path id="path" d="M416 32 L31.9 32 C14.3 32 0 46.5 0 64.3 L0 447.7 C0 465.5 14.3 480 31.9 480 L416 480 C433.6 480 448 465.5 448 447.7 L448 64.3 C448 46.5 433.6 32 416 32 Z M135.4 416 L69 416 69 202.2 135.5 202.2 135.5 416 Z M102.2 173 C80.9 173 63.7 155.7 63.7 134.5 63.7 113.3 80.9 96 102.2 96 123.4 96 140.7 113.3 140.7 134.5 140.7 155.8 123.5 173 102.2 173 Z M384.3 416 L317.9 416 317.9 312 C317.9 287.2 317.4 255.3 283.4 255.3 248.8 255.3 243.5 282.3 243.5 310.2 L243.5 416 177.1 416 177.1 202.2 240.8 202.2 240.8 231.4 241.7 231.4 C250.6 214.6 272.3 196.9 304.6 196.9 371.8 196.9 384.3 241.2 384.3 298.8 L384.3 416 Z" fill="#1C3144" fill-opacity="1" stroke="none"/>
</svg>
