<?xml version="1.0" encoding="UTF-8"?>
<svg width="448px" height="512px" viewBox="0 0 448 512" xmlns="http://www.w3.org/2000/svg" xmlns:xlink="http://www.w3.org/1999/xlink" version="1.1">
 <!-- Generated by Pixelmator Pro 1.3.4 -->
 <path id="path" d="M400 32 L48 32 C21.49 32 0 53.49 0 80 L0 432 C0 458.51 21.49 480 48 480 L400 480 C426.51 480 448 458.51 448 432 L448 80 C448 53.49 426.51 32 400 32 Z M178.117 262.104 C87.429 196.287 88.353 196.121 64 177.167 L64 152 C64 138.745 74.745 128 88 128 L360 128 C373.255 128 384 138.745 384 152 L384 177.167 C359.629 196.136 360.566 196.291 269.883 262.105 259.383 269.76 238.491 288.225 224 287.999 209.497 288.217 188.633 269.772 178.117 262.104 Z M384 217.775 L384 360 C384 373.255 373.255 384 360 384 L88 384 C74.745 384 64 373.255 64 360 L64 217.775 C77.958 228.569 97.329 243.011 159.303 287.989 173.465 298.33 197.278 320.134 223.997 319.999 250.884 320.133 275.034 297.958 288.717 287.974 350.675 243.009 370.042 228.568 384 217.775 Z" fill="#1C3144" fill-opacity="1" stroke="none"/>
</svg>
